<svg width="53" height="52" viewBox="0 0 53 52" fill="none" xmlns="http://www.w3.org/2000/svg">
<path opacity="0.5" d="M52.0152 0.35129L39.2855 47.8829C39.2207 48.0986 38.9618 48.1634 38.8108 48.0123L30.2884 39.4899L36.6748 15.6701C36.7395 15.4544 36.5453 15.2602 36.3296 15.3249L12.5099 21.7114L4.03055 13.2321C3.87952 13.081 3.94425 12.8221 4.16001 12.7574L51.67 0.00607603C51.8858 -0.0370757 52.0799 0.157107 52.0152 0.35129Z" fill="#00B37E"/>
<path opacity="0.5" d="M30.2885 39.49L27.009 51.7882C26.9442 52.004 26.6853 52.0687 26.5343 51.9177L0.0823113 25.4873C-0.0687196 25.3362 -0.00399244 25.0773 0.211766 25.0126L12.51 21.7115L30.2885 39.49Z" fill="#00B37E"/>
<path d="M36.6747 15.6699L30.2883 39.4897L12.5098 21.7112L36.3295 15.3247C36.5452 15.26 36.7394 15.4542 36.6747 15.6699Z" fill="#00B37E"/>
</svg>
